<svg width="893" height="255" viewBox="0 0 893 255" fill="none" xmlns="http://www.w3.org/2000/svg">
<rect x="3" y="3" width="887" height="249" fill="#373737"/>
<rect x="3" y="3" width="887" height="249" stroke="white" stroke-width="6"/>
<path opacity="0.37" d="M760.153 143.687C758.364 141.898 744.049 128.81 701.104 90.7729V105.344L745.583 143.687L701.104 178.963V193.534L760.153 143.687Z" stroke="#FFD700" stroke-opacity="0.53"/>
<path opacity="0.59" d="M732.546 191.617L783.159 144.071L765.521 127.583L800.031 95.7576C800.305 91.7862 799.85 77.9872 800.031 73.5183L745.583 127.583L763.221 144.071L709.923 191.617H732.546Z" stroke="#FFD700" stroke-opacity="0.53" stroke-width="3"/>
<g opacity="0.82">
<path d="M692.285 91.1564C692.285 89.674 693.487 88.4723 694.969 88.4723H710.307C711.789 88.4723 712.991 89.674 712.991 91.1564V91.1564C712.991 92.6387 711.789 93.8404 710.307 93.8404H694.969C693.487 93.8404 692.285 92.6387 692.285 91.1564V91.1564Z" fill="#4B94EB"/>
<path d="M748.65 134.101C748.65 135.584 747.448 136.785 745.966 136.785H736.764C735.281 136.785 734.08 135.584 734.08 134.101V134.101C734.08 132.619 735.281 131.417 736.764 131.417H741.365H745.966C747.448 131.417 748.65 132.619 748.65 134.101V134.101Z" fill="#4B94EB"/>
<path d="M761.687 140.236C761.687 141.719 760.485 142.92 759.003 142.92H741.365C739.883 142.92 738.681 141.719 738.681 140.236V140.236C738.681 138.754 739.883 137.552 741.365 137.552H750.184H759.003C760.485 137.552 761.687 138.754 761.687 140.236V140.236Z" fill="#D9D9D9"/>
<path d="M758.62 134.101C758.62 135.584 757.418 136.785 755.935 136.785H752.868C751.386 136.785 750.184 135.584 750.184 134.101V134.101C750.184 132.619 751.386 131.417 752.868 131.417H754.402H755.935C757.418 131.417 758.62 132.619 758.62 134.101V134.101Z" fill="#F0B041"/>
<path d="M699.57 103.426C699.57 101.944 700.772 100.742 702.254 100.742H712.991C714.473 100.742 715.675 101.944 715.675 103.426V103.426C715.675 104.909 714.473 106.11 712.991 106.11H702.254C700.772 106.11 699.57 104.909 699.57 103.426V103.426Z" fill="#AC6BFD"/>
<path d="M744.816 121.831C744.816 123.314 743.614 124.515 742.132 124.515H734.463C732.981 124.515 731.779 123.314 731.779 121.831V121.831C731.779 120.349 732.981 119.147 734.463 119.147H742.132C743.614 119.147 744.816 120.349 744.816 121.831V121.831Z" fill="#AC6BFD"/>
<path d="M716.442 103.426C716.442 101.944 717.643 100.742 719.126 100.742H724.494C725.976 100.742 727.178 101.944 727.178 103.426V103.426C727.178 104.909 725.976 106.11 724.494 106.11H719.126C717.643 106.11 716.442 104.909 716.442 103.426V103.426Z" fill="#D9D9D9"/>
<path d="M731.012 121.831C731.012 123.314 729.811 124.515 728.328 124.515H720.659C719.177 124.515 717.975 123.314 717.975 121.831V121.831C717.975 120.349 719.177 119.147 720.659 119.147H728.328C729.811 119.147 731.012 120.349 731.012 121.831V121.831Z" fill="#D9D9D9"/>
<path d="M695.353 97.2915C695.353 95.8091 696.554 94.6074 698.037 94.6074H717.208C718.691 94.6074 719.892 95.8091 719.892 97.2915V97.2915C719.892 98.7738 718.691 99.9755 717.208 99.9755H707.929H698.037C696.554 99.9755 695.353 98.7738 695.353 97.2915V97.2915Z" fill="#7CFC9B"/>
<path d="M751.718 127.966C751.718 129.449 750.516 130.65 749.034 130.65H729.095C727.613 130.65 726.411 129.449 726.411 127.966V127.966C726.411 126.484 727.613 125.282 729.095 125.282H749.034C750.516 125.282 751.718 126.484 751.718 127.966V127.966Z" fill="#7CFC9B"/>
<path d="M705.705 109.561C705.705 108.079 706.907 106.877 708.389 106.877H731.396C732.878 106.877 734.08 108.079 734.08 109.561V109.561C734.08 111.044 732.878 112.245 731.396 112.245H708.389C706.907 112.245 705.705 111.044 705.705 109.561V109.561Z" fill="#F0B041"/>
<path d="M737.147 115.696C737.147 117.179 735.946 118.38 734.463 118.38H716.058C714.576 118.38 713.374 117.179 713.374 115.696V115.696C713.374 114.214 714.576 113.012 716.058 113.012H734.463C735.946 113.012 737.147 114.214 737.147 115.696V115.696Z" fill="#E85A2A"/>
<path d="M685 189.316C685 190.798 686.202 192 687.684 192H703.021C704.504 192 705.706 190.798 705.706 189.316V189.316C705.706 187.834 704.504 186.632 703.021 186.632H687.684C686.202 186.632 685 187.834 685 189.316V189.316Z" fill="#4B94EB"/>
<path d="M747.884 146.371C747.884 144.889 746.682 143.687 745.199 143.687H735.997C734.515 143.687 733.313 144.889 733.313 146.371V146.371C733.313 147.854 734.515 149.055 735.997 149.055H740.598H745.199C746.682 149.055 747.884 147.854 747.884 146.371V146.371Z" fill="#4B94EB"/>
<path d="M761.304 140.236C761.304 138.754 760.102 137.552 758.62 137.552H740.982C739.499 137.552 738.298 138.754 738.298 140.236V140.236C738.298 141.719 739.499 142.92 740.982 142.92H749.801H758.62C760.102 142.92 761.304 141.719 761.304 140.236V140.236Z" fill="#D9D9D9"/>
<path d="M757.086 146.371C757.086 144.889 755.884 143.687 754.402 143.687H751.334C749.852 143.687 748.65 144.889 748.65 146.371V146.371C748.65 147.854 749.852 149.055 751.334 149.055H752.868H754.402C755.884 149.055 757.086 147.854 757.086 146.371V146.371Z" fill="#F0B041"/>
<path d="M693.436 177.046C693.436 178.529 694.637 179.73 696.12 179.73H706.856C708.338 179.73 709.54 178.529 709.54 177.046V177.046C709.54 175.564 708.338 174.362 706.856 174.362H696.12C694.637 174.362 693.436 175.564 693.436 177.046V177.046Z" fill="#AC6BFD"/>
<path d="M741.749 158.641C741.749 157.159 740.547 155.957 739.064 155.957H731.396C729.913 155.957 728.712 157.159 728.712 158.641V158.641C728.712 160.123 729.913 161.325 731.396 161.325H739.064C740.547 161.325 741.749 160.123 741.749 158.641V158.641Z" fill="#AC6BFD"/>
<path d="M710.307 177.046C710.307 178.529 711.508 179.73 712.991 179.73H718.359C719.841 179.73 721.043 178.529 721.043 177.046V177.046C721.043 175.564 719.841 174.362 718.359 174.362H712.991C711.508 174.362 710.307 175.564 710.307 177.046V177.046Z" fill="#D9D9D9"/>
<path d="M727.945 158.641C727.945 157.159 726.743 155.957 725.261 155.957H717.592C716.11 155.957 714.908 157.159 714.908 158.641V158.641C714.908 160.123 716.11 161.325 717.592 161.325H725.261C726.743 161.325 727.945 160.123 727.945 158.641V158.641Z" fill="#D9D9D9"/>
<path d="M687.301 183.181C687.301 184.663 688.502 185.865 689.985 185.865H709.157C710.639 185.865 711.841 184.663 711.841 183.181V183.181C711.841 181.699 710.639 180.497 709.157 180.497H699.877H689.985C688.502 180.497 687.301 181.699 687.301 183.181V183.181Z" fill="#7CFC9B"/>
<path d="M749.417 152.506C749.417 151.024 748.216 149.822 746.733 149.822H726.795C725.312 149.822 724.111 151.024 724.111 152.506V152.506C724.111 153.989 725.312 155.19 726.795 155.19H746.733C748.216 155.19 749.417 153.989 749.417 152.506V152.506Z" fill="#7CFC9B"/>
<path d="M700.337 170.911C700.337 172.393 701.539 173.595 703.021 173.595H726.027C727.51 173.595 728.712 172.393 728.712 170.911V170.911C728.712 169.429 727.51 168.227 726.027 168.227H703.021C701.539 168.227 700.337 169.429 700.337 170.911V170.911Z" fill="#F0B041"/>
<path d="M734.08 164.776C734.08 163.294 732.878 162.092 731.396 162.092H712.991C711.508 162.092 710.307 163.294 710.307 164.776V164.776C710.307 166.258 711.508 167.46 712.991 167.46H731.396C732.878 167.46 734.08 166.258 734.08 164.776V164.776Z" fill="#E85A2A"/>
</g>
<path opacity="0.94" d="M745.583 131.366C747.535 129.189 763.151 113.269 810 67V88.9216L788.458 110.144L766.916 131.366L810 171.944V192L745.583 131.366Z" fill="#C0C0C0"/>
<g opacity="0.82">
<path d="M706.089 91.1564C706.089 89.674 707.291 88.4723 708.773 88.4723H724.111C725.593 88.4723 726.795 89.674 726.795 91.1564V91.1564C726.795 92.6387 725.593 93.8404 724.111 93.8404H708.773C707.291 93.8404 706.089 92.6387 706.089 91.1564V91.1564Z" fill="#4B94EB"/>
<path d="M762.454 134.101C762.454 135.584 761.252 136.785 759.77 136.785H750.568C749.085 136.785 747.884 135.584 747.884 134.101V134.101C747.884 132.619 749.085 131.417 750.568 131.417H755.169H759.77C761.252 131.417 762.454 132.619 762.454 134.101V134.101Z" fill="#4B94EB"/>
<path d="M775.491 140.236C775.491 141.719 774.289 142.92 772.807 142.92H755.169C753.686 142.92 752.485 141.719 752.485 140.236V140.236C752.485 138.754 753.686 137.552 755.169 137.552H763.988H772.807C774.289 137.552 775.491 138.754 775.491 140.236V140.236Z" fill="#D9D9D9"/>
<path d="M772.423 134.101C772.423 135.584 771.221 136.785 769.739 136.785H766.672C765.189 136.785 763.988 135.584 763.988 134.101V134.101C763.988 132.619 765.189 131.417 766.672 131.417H768.205H769.739C771.221 131.417 772.423 132.619 772.423 134.101V134.101Z" fill="#F0B041"/>
<path d="M713.374 103.426C713.374 101.944 714.576 100.742 716.058 100.742H726.795C728.277 100.742 729.479 101.944 729.479 103.426V103.426C729.479 104.909 728.277 106.11 726.795 106.11H716.058C714.576 106.11 713.374 104.909 713.374 103.426V103.426Z" fill="#AC6BFD"/>
<path d="M758.62 121.831C758.62 123.314 757.418 124.515 755.935 124.515H748.267C746.784 124.515 745.583 123.314 745.583 121.831V121.831C745.583 120.349 746.784 119.147 748.267 119.147H755.935C757.418 119.147 758.62 120.349 758.62 121.831V121.831Z" fill="#AC6BFD"/>
<path d="M730.245 103.426C730.245 101.944 731.447 100.742 732.929 100.742H738.298C739.78 100.742 740.982 101.944 740.982 103.426V103.426C740.982 104.909 739.78 106.11 738.298 106.11H732.929C731.447 106.11 730.245 104.909 730.245 103.426V103.426Z" fill="#D9D9D9"/>
<path d="M744.816 121.831C744.816 123.314 743.614 124.515 742.132 124.515H734.463C732.981 124.515 731.779 123.314 731.779 121.831V121.831C731.779 120.349 732.981 119.147 734.463 119.147H742.132C743.614 119.147 744.816 120.349 744.816 121.831V121.831Z" fill="#D9D9D9"/>
<path d="M709.157 97.2915C709.157 95.8091 710.358 94.6074 711.841 94.6074H731.012C732.495 94.6074 733.696 95.8091 733.696 97.2915V97.2915C733.696 98.7738 732.495 99.9755 731.012 99.9755H721.733H711.841C710.358 99.9755 709.157 98.7738 709.157 97.2915V97.2915Z" fill="#7CFC9B"/>
<path d="M765.521 127.966C765.521 129.449 764.32 130.65 762.837 130.65H742.899C741.416 130.65 740.215 129.449 740.215 127.966V127.966C740.215 126.484 741.416 125.282 742.899 125.282H762.837C764.32 125.282 765.521 126.484 765.521 127.966V127.966Z" fill="#7CFC9B"/>
<path d="M719.509 109.561C719.509 108.079 720.711 106.877 722.193 106.877H745.199C746.682 106.877 747.884 108.079 747.884 109.561V109.561C747.884 111.044 746.682 112.245 745.199 112.245H722.193C720.711 112.245 719.509 111.044 719.509 109.561V109.561Z" fill="#F0B041"/>
<path d="M750.951 115.696C750.951 117.179 749.749 118.38 748.267 118.38H729.862C728.379 118.38 727.178 117.179 727.178 115.696V115.696C727.178 114.214 728.379 113.012 729.862 113.012H748.267C749.749 113.012 750.951 114.214 750.951 115.696V115.696Z" fill="#E85A2A"/>
<path d="M698.803 189.316C698.803 190.798 700.005 192 701.488 192H716.825C718.307 192 719.509 190.798 719.509 189.316V189.316C719.509 187.834 718.307 186.632 716.825 186.632H701.488C700.005 186.632 698.803 187.834 698.803 189.316V189.316Z" fill="#4B94EB"/>
<path d="M761.687 146.371C761.687 144.889 760.485 143.687 759.003 143.687H749.801C748.318 143.687 747.117 144.889 747.117 146.371V146.371C747.117 147.854 748.318 149.055 749.801 149.055H754.402H759.003C760.485 149.055 761.687 147.854 761.687 146.371V146.371Z" fill="#4B94EB"/>
<path d="M775.107 140.236C775.107 138.754 773.906 137.552 772.423 137.552H754.785C753.303 137.552 752.101 138.754 752.101 140.236V140.236C752.101 141.719 753.303 142.92 754.785 142.92H763.604H772.423C773.906 142.92 775.107 141.719 775.107 140.236V140.236Z" fill="#D9D9D9"/>
<path d="M770.889 146.371C770.889 144.889 769.688 143.687 768.205 143.687H765.138C763.656 143.687 762.454 144.889 762.454 146.371V146.371C762.454 147.854 763.656 149.055 765.138 149.055H766.672H768.205C769.688 149.055 770.889 147.854 770.889 146.371V146.371Z" fill="#F0B041"/>
<path d="M707.239 177.046C707.239 178.529 708.441 179.73 709.923 179.73H720.659C722.142 179.73 723.343 178.529 723.343 177.046V177.046C723.343 175.564 722.142 174.362 720.659 174.362H709.923C708.441 174.362 707.239 175.564 707.239 177.046V177.046Z" fill="#AC6BFD"/>
<path d="M755.552 158.641C755.552 157.159 754.35 155.957 752.868 155.957H745.199C743.717 155.957 742.515 157.159 742.515 158.641V158.641C742.515 160.123 743.717 161.325 745.199 161.325H752.868C754.35 161.325 755.552 160.123 755.552 158.641V158.641Z" fill="#AC6BFD"/>
<path d="M724.11 177.046C724.11 178.529 725.312 179.73 726.794 179.73H732.162C733.645 179.73 734.846 178.529 734.846 177.046V177.046C734.846 175.564 733.645 174.362 732.162 174.362H726.794C725.312 174.362 724.11 175.564 724.11 177.046V177.046Z" fill="#D9D9D9"/>
<path d="M741.749 158.641C741.749 157.159 740.547 155.957 739.064 155.957H731.396C729.913 155.957 728.712 157.159 728.712 158.641V158.641C728.712 160.123 729.913 161.325 731.396 161.325H739.064C740.547 161.325 741.749 160.123 741.749 158.641V158.641Z" fill="#D9D9D9"/>
<path d="M701.104 183.181C701.104 184.663 702.306 185.865 703.788 185.865H722.96C724.442 185.865 725.644 184.663 725.644 183.181V183.181C725.644 181.699 724.442 180.497 722.96 180.497H713.681H703.788C702.306 180.497 701.104 181.699 701.104 183.181V183.181Z" fill="#7CFC9B"/>
<path d="M763.221 152.506C763.221 151.024 762.019 149.822 760.537 149.822H740.598C739.116 149.822 737.914 151.024 737.914 152.506V152.506C737.914 153.989 739.116 155.19 740.598 155.19H760.537C762.019 155.19 763.221 153.989 763.221 152.506V152.506Z" fill="#7CFC9B"/>
<path d="M714.141 170.911C714.141 172.393 715.343 173.595 716.825 173.595H739.831C741.314 173.595 742.515 172.393 742.515 170.911V170.911C742.515 169.429 741.314 168.227 739.831 168.227H716.825C715.343 168.227 714.141 169.429 714.141 170.911V170.911Z" fill="#F0B041"/>
<path d="M747.883 164.776C747.883 163.294 746.682 162.092 745.199 162.092H726.795C725.312 162.092 724.11 163.294 724.11 164.776V164.776C724.11 166.258 725.312 167.46 726.795 167.46H745.199C746.682 167.46 747.883 166.258 747.883 164.776V164.776Z" fill="#E85A2A"/>
</g>
<path d="M160.547 123.976C174.03 125.427 184.696 127.219 192.547 129.352C200.483 131.485 206.286 134.259 209.955 137.672C213.624 141.085 215.459 145.48 215.459 150.856C215.459 158.451 211.747 164.339 204.323 168.52C196.899 172.701 186.872 174.792 174.243 174.792C163.15 174.792 152.142 173.085 141.219 169.672C130.382 166.173 120.696 161.523 112.163 155.72V173H100.131V141.512L107.683 139.976C115.79 147.571 125.816 153.544 137.763 157.896C149.795 162.163 161.998 164.296 174.371 164.296C182.819 164.296 189.518 163.144 194.467 160.84C199.416 158.536 201.891 155.208 201.891 150.856C201.891 147.784 200.398 145.352 197.411 143.56C194.424 141.683 189.518 140.147 182.691 138.952C175.864 137.672 165.838 136.392 152.611 135.112C139.726 133.832 129.486 132.083 121.891 129.864C114.382 127.645 108.92 124.829 105.507 121.416C102.179 118.003 100.515 113.693 100.515 108.488C100.515 100.552 104.27 94.408 111.779 90.056C119.288 85.704 129.912 83.528 143.651 83.528C154.318 83.528 164.131 85.1067 173.091 88.264C182.136 91.336 190.286 95.6453 197.539 101.192V85.192H209.443V116.168L202.275 117.576C195.192 110.067 186.744 104.307 176.931 100.296C167.118 96.2 155.982 94.152 143.523 94.152C134.478 94.152 127.31 95.3893 122.019 97.864C116.814 100.339 114.211 103.88 114.211 108.488C114.211 111.475 115.576 113.864 118.307 115.656C121.038 117.448 125.646 118.984 132.131 120.264C138.616 121.459 148.088 122.696 160.547 123.976ZM376.989 122.824H357.021L320.285 177.224C314.141 186.099 308.296 192.669 302.749 196.936C297.202 201.288 290.632 203.464 283.037 203.464C278.088 203.464 273.821 202.952 270.237 201.928C266.653 200.904 261.661 199.069 255.261 196.424L259.485 186.44C264.178 188.403 268.274 189.853 271.773 190.792C275.357 191.816 279.197 192.328 283.293 192.328C288.754 192.328 293.448 191.048 297.373 188.488C301.298 185.928 305.224 181.875 309.149 176.328L270.749 122.824H252.189V112.712H301.853V122.824H285.213L316.189 165.96L345.245 122.824H329.117V112.712H376.989V122.824ZM558.764 162.888V173H498.476V162.888H521.004V150.6C521.004 142.408 519.041 135.667 515.116 130.376C511.276 125 504.492 122.312 494.764 122.312C480.257 122.312 464.343 130.077 447.02 145.608V162.888H469.676V173H407.596V162.888H434.476V122.824H407.596V112.712H447.02V135.368C454.615 128.371 462.551 122.611 470.828 118.088C479.191 113.48 487.895 111.176 496.94 111.176C509.996 111.176 519.34 115.016 524.972 122.696C530.689 130.291 533.548 139.933 533.548 151.624V162.888H558.764ZM664.09 166.216C653.85 171.848 643.354 174.664 632.602 174.664C623.13 174.664 615.919 172.36 610.97 167.752C606.021 163.059 603.546 156.104 603.546 146.888V122.824H583.45V112.712H603.546V95.944H616.09V112.712H654.106V122.824H616.09V146.76C616.09 158.024 621.765 163.656 633.114 163.656C642.33 163.656 651.205 161.395 659.738 156.872L664.09 166.216Z" fill="white"/>
</svg>
