<svg width="893" height="255" viewBox="0 0 893 255" fill="none" xmlns="http://www.w3.org/2000/svg">
<rect x="3" y="3" width="887" height="249" fill="#373737"/>
<rect x="3" y="3" width="887" height="249" stroke="white" stroke-width="6"/>
<path d="M156.547 123.976C170.03 125.427 180.696 127.219 188.547 129.352C196.483 131.485 202.286 134.259 205.955 137.672C209.624 141.085 211.459 145.48 211.459 150.856C211.459 158.451 207.747 164.339 200.323 168.52C192.899 172.701 182.872 174.792 170.243 174.792C159.15 174.792 148.142 173.085 137.219 169.672C126.382 166.173 116.696 161.523 108.163 155.72V173H96.131V141.512L103.683 139.976C111.79 147.571 121.816 153.544 133.763 157.896C145.795 162.163 157.998 164.296 170.371 164.296C178.819 164.296 185.518 163.144 190.467 160.84C195.416 158.536 197.891 155.208 197.891 150.856C197.891 147.784 196.398 145.352 193.411 143.56C190.424 141.683 185.518 140.147 178.691 138.952C171.864 137.672 161.838 136.392 148.611 135.112C135.726 133.832 125.486 132.083 117.891 129.864C110.382 127.645 104.92 124.829 101.507 121.416C98.179 118.003 96.515 113.693 96.515 108.488C96.515 100.552 100.27 94.408 107.779 90.056C115.288 85.704 125.912 83.528 139.651 83.528C150.318 83.528 160.131 85.1067 169.091 88.264C178.136 91.336 186.286 95.6453 193.539 101.192V85.192H205.443V116.168L198.275 117.576C191.192 110.067 182.744 104.307 172.931 100.296C163.118 96.2 151.982 94.152 139.523 94.152C130.478 94.152 123.31 95.3893 118.019 97.864C112.814 100.339 110.211 103.88 110.211 108.488C110.211 111.475 111.576 113.864 114.307 115.656C117.038 117.448 121.646 118.984 128.131 120.264C134.616 121.459 144.088 122.696 156.547 123.976ZM372.989 122.824H353.021L316.285 177.224C310.141 186.099 304.296 192.669 298.749 196.936C293.202 201.288 286.632 203.464 279.037 203.464C274.088 203.464 269.821 202.952 266.237 201.928C262.653 200.904 257.661 199.069 251.261 196.424L255.485 186.44C260.178 188.403 264.274 189.853 267.773 190.792C271.357 191.816 275.197 192.328 279.293 192.328C284.754 192.328 289.448 191.048 293.373 188.488C297.298 185.928 301.224 181.875 305.149 176.328L266.749 122.824H248.189V112.712H297.853V122.824H281.213L312.189 165.96L341.245 122.824H325.117V112.712H372.989V122.824ZM554.764 162.888V173H494.476V162.888H517.004V150.6C517.004 142.408 515.041 135.667 511.116 130.376C507.276 125 500.492 122.312 490.764 122.312C476.257 122.312 460.343 130.077 443.02 145.608V162.888H465.676V173H403.596V162.888H430.476V122.824H403.596V112.712H443.02V135.368C450.615 128.371 458.551 122.611 466.828 118.088C475.191 113.48 483.895 111.176 492.94 111.176C505.996 111.176 515.34 115.016 520.972 122.696C526.689 130.291 529.548 139.933 529.548 151.624V162.888H554.764ZM660.09 166.216C649.85 171.848 639.354 174.664 628.602 174.664C619.13 174.664 611.919 172.36 606.97 167.752C602.021 163.059 599.546 156.104 599.546 146.888V122.824H579.45V112.712H599.546V95.944H612.09V112.712H650.106V122.824H612.09V146.76C612.09 158.024 617.765 163.656 629.114 163.656C638.33 163.656 647.205 161.395 655.738 156.872L660.09 166.216Z" fill="white"/>
<path opacity="0.37" d="M760.818 141.818C758.909 139.909 743.636 125.946 697.818 85.3637V100.909L745.273 141.818L697.818 179.455V195L760.818 141.818Z" stroke="#FFD700" stroke-opacity="0.53"/>
<path opacity="0.59" d="M731.363 192.955L785.363 142.227L766.545 124.636L803.363 90.6818C803.656 86.4447 803.17 71.7224 803.363 66.9546L745.272 124.636L764.091 142.227L707.227 192.955H731.363Z" stroke="#FFD700" stroke-opacity="0.53" stroke-width="3"/>
<g opacity="0.82">
<path d="M688.409 85.7727C688.409 84.1911 689.691 82.909 691.273 82.909H707.636C709.218 82.909 710.5 84.1911 710.5 85.7727V85.7727C710.5 87.3542 709.218 88.6363 707.636 88.6363H691.273C689.691 88.6363 688.409 87.3542 688.409 85.7727V85.7727Z" fill="#4B94EB"/>
<path d="M748.546 131.591C748.546 133.172 747.264 134.455 745.682 134.455H735.864C734.282 134.455 733 133.172 733 131.591V131.591C733 130.009 734.282 128.727 735.864 128.727H740.773H745.682C747.264 128.727 748.546 130.009 748.546 131.591V131.591Z" fill="#4B94EB"/>
<path d="M762.455 138.136C762.455 139.718 761.173 141 759.591 141H740.773C739.191 141 737.909 139.718 737.909 138.136V138.136C737.909 136.555 739.191 135.273 740.773 135.273H750.182H759.591C761.173 135.273 762.455 136.555 762.455 138.136V138.136Z" fill="#D9D9D9"/>
<path d="M759.181 131.591C759.181 133.172 757.899 134.455 756.318 134.455H753.045C751.463 134.455 750.181 133.172 750.181 131.591V131.591C750.181 130.009 751.463 128.727 753.045 128.727H754.681H756.318C757.899 128.727 759.181 130.009 759.181 131.591V131.591Z" fill="#F0B041"/>
<path d="M696.182 98.8637C696.182 97.2822 697.464 96.0001 699.045 96.0001H710.5C712.081 96.0001 713.363 97.2822 713.363 98.8637V98.8637C713.363 100.445 712.081 101.727 710.5 101.727H699.045C697.464 101.727 696.182 100.445 696.182 98.8637V98.8637Z" fill="#AC6BFD"/>
<path d="M744.454 118.5C744.454 120.082 743.172 121.364 741.591 121.364H733.409C731.827 121.364 730.545 120.082 730.545 118.5V118.5C730.545 116.919 731.827 115.636 733.409 115.636H741.591C743.172 115.636 744.454 116.919 744.454 118.5V118.5Z" fill="#AC6BFD"/>
<path d="M714.182 98.8637C714.182 97.2822 715.464 96.0001 717.045 96.0001H722.773C724.354 96.0001 725.636 97.2822 725.636 98.8637V98.8637C725.636 100.445 724.354 101.727 722.773 101.727H717.045C715.464 101.727 714.182 100.445 714.182 98.8637V98.8637Z" fill="#D9D9D9"/>
<path d="M729.728 118.5C729.728 120.082 728.446 121.364 726.864 121.364H718.682C717.101 121.364 715.819 120.082 715.819 118.5V118.5C715.819 116.919 717.101 115.636 718.682 115.636H726.864C728.446 115.636 729.728 116.919 729.728 118.5V118.5Z" fill="#D9D9D9"/>
<path d="M691.681 92.3183C691.681 90.7367 692.963 89.4546 694.545 89.4546H715C716.581 89.4546 717.863 90.7367 717.863 92.3183V92.3183C717.863 93.8998 716.581 95.1819 715 95.1819H705.1H694.545C692.963 95.1819 691.681 93.8998 691.681 92.3183V92.3183Z" fill="#7CFC9B"/>
<path d="M751.818 125.046C751.818 126.627 750.536 127.909 748.954 127.909H727.682C726.1 127.909 724.818 126.627 724.818 125.046V125.046C724.818 123.464 726.1 122.182 727.682 122.182H748.954C750.536 122.182 751.818 123.464 751.818 125.046V125.046Z" fill="#7CFC9B"/>
<path d="M702.727 105.409C702.727 103.828 704.009 102.545 705.591 102.545H730.136C731.718 102.545 733 103.828 733 105.409V105.409C733 106.991 731.718 108.273 730.136 108.273H705.591C704.009 108.273 702.727 106.991 702.727 105.409V105.409Z" fill="#F0B041"/>
<path d="M736.273 111.954C736.273 113.536 734.991 114.818 733.409 114.818H713.773C712.192 114.818 710.909 113.536 710.909 111.954V111.954C710.909 110.373 712.192 109.091 713.773 109.091H733.409C734.991 109.091 736.273 110.373 736.273 111.954V111.954Z" fill="#E85A2A"/>
<path d="M680.637 190.5C680.637 192.081 681.919 193.364 683.5 193.364H699.864C701.445 193.364 702.727 192.081 702.727 190.5V190.5C702.727 188.918 701.445 187.636 699.864 187.636H683.5C681.919 187.636 680.637 188.918 680.637 190.5V190.5Z" fill="#4B94EB"/>
<path d="M747.727 144.682C747.727 143.1 746.445 141.818 744.864 141.818H735.045C733.464 141.818 732.182 143.1 732.182 144.682V144.682C732.182 146.263 733.464 147.546 735.045 147.546H739.955H744.864C746.445 147.546 747.727 146.263 747.727 144.682V144.682Z" fill="#4B94EB"/>
<path d="M762.046 138.136C762.046 136.555 760.764 135.273 759.182 135.273H740.364C738.782 135.273 737.5 136.555 737.5 138.136V138.136C737.5 139.718 738.782 141 740.364 141H749.773H759.182C760.764 141 762.046 139.718 762.046 138.136V138.136Z" fill="#D9D9D9"/>
<path d="M757.546 144.682C757.546 143.1 756.264 141.818 754.682 141.818H751.409C749.828 141.818 748.546 143.1 748.546 144.682V144.682C748.546 146.263 749.828 147.546 751.409 147.546H753.046H754.682C756.264 147.546 757.546 146.263 757.546 144.682V144.682Z" fill="#F0B041"/>
<path d="M689.637 177.409C689.637 178.991 690.919 180.273 692.5 180.273H703.955C705.537 180.273 706.819 178.991 706.819 177.409V177.409C706.819 175.828 705.537 174.545 703.955 174.545H692.5C690.919 174.545 689.637 175.828 689.637 177.409V177.409Z" fill="#AC6BFD"/>
<path d="M741.182 157.773C741.182 156.191 739.9 154.909 738.318 154.909H730.137C728.555 154.909 727.273 156.191 727.273 157.773V157.773C727.273 159.354 728.555 160.636 730.137 160.636H738.318C739.9 160.636 741.182 159.354 741.182 157.773V157.773Z" fill="#AC6BFD"/>
<path d="M707.636 177.409C707.636 178.991 708.918 180.273 710.5 180.273H716.227C717.809 180.273 719.091 178.991 719.091 177.409V177.409C719.091 175.828 717.809 174.545 716.227 174.545H710.5C708.918 174.545 707.636 175.828 707.636 177.409V177.409Z" fill="#D9D9D9"/>
<path d="M726.454 157.773C726.454 156.191 725.172 154.909 723.591 154.909H715.409C713.827 154.909 712.545 156.191 712.545 157.773V157.773C712.545 159.354 713.827 160.636 715.409 160.636H723.591C725.172 160.636 726.454 159.354 726.454 157.773V157.773Z" fill="#D9D9D9"/>
<path d="M683.091 183.955C683.091 185.536 684.373 186.818 685.955 186.818H706.409C707.991 186.818 709.273 185.536 709.273 183.955V183.955C709.273 182.373 707.991 181.091 706.409 181.091H696.509H685.955C684.373 181.091 683.091 182.373 683.091 183.955V183.955Z" fill="#7CFC9B"/>
<path d="M749.363 151.227C749.363 149.646 748.081 148.364 746.5 148.364H725.227C723.645 148.364 722.363 149.646 722.363 151.227V151.227C722.363 152.809 723.645 154.091 725.227 154.091H746.5C748.081 154.091 749.363 152.809 749.363 151.227V151.227Z" fill="#7CFC9B"/>
<path d="M697 170.864C697 172.445 698.282 173.727 699.864 173.727H724.409C725.991 173.727 727.273 172.445 727.273 170.864V170.864C727.273 169.282 725.991 168 724.409 168H699.864C698.282 168 697 169.282 697 170.864V170.864Z" fill="#F0B041"/>
<path d="M733 164.318C733 162.737 731.718 161.454 730.136 161.454H710.5C708.918 161.454 707.636 162.737 707.636 164.318V164.318C707.636 165.9 708.918 167.182 710.5 167.182H730.136C731.718 167.182 733 165.9 733 164.318V164.318Z" fill="#E85A2A"/>
</g>
<path opacity="0.94" d="M745.273 128.672C747.355 126.35 764.017 109.364 814 60V83.3884L791.017 106.03L768.033 128.672L814 171.966V193.364L745.273 128.672Z" fill="#C0C0C0"/>
<g opacity="0.82">
<path d="M703.136 85.7727C703.136 84.1911 704.418 82.909 706 82.909H722.363C723.945 82.909 725.227 84.1911 725.227 85.7727V85.7727C725.227 87.3542 723.945 88.6363 722.363 88.6363H706C704.418 88.6363 703.136 87.3542 703.136 85.7727V85.7727Z" fill="#4B94EB"/>
<path d="M763.272 131.591C763.272 133.172 761.99 134.455 760.409 134.455H750.591C749.009 134.455 747.727 133.172 747.727 131.591V131.591C747.727 130.009 749.009 128.727 750.591 128.727H755.5H760.409C761.99 128.727 763.272 130.009 763.272 131.591V131.591Z" fill="#4B94EB"/>
<path d="M777.182 138.136C777.182 139.718 775.899 141 774.318 141H755.5C753.918 141 752.636 139.718 752.636 138.136V138.136C752.636 136.555 753.918 135.273 755.5 135.273H764.909H774.318C775.899 135.273 777.182 136.555 777.182 138.136V138.136Z" fill="#D9D9D9"/>
<path d="M773.909 131.591C773.909 133.172 772.627 134.455 771.046 134.455H767.773C766.192 134.455 764.909 133.172 764.909 131.591V131.591C764.909 130.009 766.192 128.727 767.773 128.727H769.409H771.046C772.627 128.727 773.909 130.009 773.909 131.591V131.591Z" fill="#F0B041"/>
<path d="M710.909 98.8637C710.909 97.2822 712.191 96.0001 713.773 96.0001H725.227C726.809 96.0001 728.091 97.2822 728.091 98.8637V98.8637C728.091 100.445 726.809 101.727 725.227 101.727H713.773C712.191 101.727 710.909 100.445 710.909 98.8637V98.8637Z" fill="#AC6BFD"/>
<path d="M759.181 118.5C759.181 120.082 757.899 121.364 756.318 121.364H748.136C746.554 121.364 745.272 120.082 745.272 118.5V118.5C745.272 116.919 746.554 115.636 748.136 115.636H756.318C757.899 115.636 759.181 116.919 759.181 118.5V118.5Z" fill="#AC6BFD"/>
<path d="M728.909 98.8637C728.909 97.2822 730.191 96.0001 731.772 96.0001H737.5C739.081 96.0001 740.363 97.2822 740.363 98.8637V98.8637C740.363 100.445 739.081 101.727 737.5 101.727H731.772C730.191 101.727 728.909 100.445 728.909 98.8637V98.8637Z" fill="#D9D9D9"/>
<path d="M744.454 118.5C744.454 120.082 743.172 121.364 741.591 121.364H733.409C731.827 121.364 730.545 120.082 730.545 118.5V118.5C730.545 116.919 731.827 115.636 733.409 115.636H741.591C743.172 115.636 744.454 116.919 744.454 118.5V118.5Z" fill="#D9D9D9"/>
<path d="M706.41 92.3183C706.41 90.7367 707.692 89.4546 709.273 89.4546H729.728C731.309 89.4546 732.591 90.7367 732.591 92.3183V92.3183C732.591 93.8998 731.309 95.1819 729.728 95.1819H719.828H709.273C707.692 95.1819 706.41 93.8998 706.41 92.3183V92.3183Z" fill="#7CFC9B"/>
<path d="M766.546 125.046C766.546 126.627 765.264 127.909 763.682 127.909H742.409C740.828 127.909 739.546 126.627 739.546 125.046V125.046C739.546 123.464 740.828 122.182 742.409 122.182H763.682C765.264 122.182 766.546 123.464 766.546 125.046V125.046Z" fill="#7CFC9B"/>
<path d="M717.455 105.409C717.455 103.828 718.737 102.545 720.318 102.545H744.864C746.445 102.545 747.728 103.828 747.728 105.409V105.409C747.728 106.991 746.445 108.273 744.864 108.273H720.318C718.737 108.273 717.455 106.991 717.455 105.409V105.409Z" fill="#F0B041"/>
<path d="M751 111.954C751 113.536 749.718 114.818 748.136 114.818H728.5C726.919 114.818 725.636 113.536 725.636 111.954V111.954C725.636 110.373 726.919 109.091 728.5 109.091H748.136C749.718 109.091 751 110.373 751 111.954V111.954Z" fill="#E85A2A"/>
<path d="M695.364 190.5C695.364 192.081 696.646 193.364 698.227 193.364H714.591C716.172 193.364 717.454 192.081 717.454 190.5V190.5C717.454 188.918 716.172 187.636 714.591 187.636H698.227C696.646 187.636 695.364 188.918 695.364 190.5V190.5Z" fill="#4B94EB"/>
<path d="M762.455 144.682C762.455 143.1 761.173 141.818 759.591 141.818H749.773C748.191 141.818 746.909 143.1 746.909 144.682V144.682C746.909 146.263 748.191 147.546 749.773 147.546H754.682H759.591C761.173 147.546 762.455 146.263 762.455 144.682V144.682Z" fill="#4B94EB"/>
<path d="M776.773 138.136C776.773 136.555 775.491 135.273 773.909 135.273H755.091C753.509 135.273 752.227 136.555 752.227 138.136V138.136C752.227 139.718 753.509 141 755.091 141H764.5H773.909C775.491 141 776.773 139.718 776.773 138.136V138.136Z" fill="#D9D9D9"/>
<path d="M772.273 144.682C772.273 143.1 770.99 141.818 769.409 141.818H766.136C764.555 141.818 763.273 143.1 763.273 144.682V144.682C763.273 146.263 764.555 147.546 766.136 147.546H767.773H769.409C770.99 147.546 772.273 146.263 772.273 144.682V144.682Z" fill="#F0B041"/>
<path d="M704.364 177.409C704.364 178.991 705.646 180.273 707.227 180.273H718.682C720.263 180.273 721.546 178.991 721.546 177.409V177.409C721.546 175.828 720.263 174.545 718.682 174.545H707.227C705.646 174.545 704.364 175.828 704.364 177.409V177.409Z" fill="#AC6BFD"/>
<path d="M755.909 157.773C755.909 156.191 754.627 154.909 753.045 154.909H744.864C743.282 154.909 742 156.191 742 157.773V157.773C742 159.354 743.282 160.636 744.864 160.636H753.045C754.627 160.636 755.909 159.354 755.909 157.773V157.773Z" fill="#AC6BFD"/>
<path d="M722.364 177.409C722.364 178.991 723.646 180.273 725.228 180.273H730.955C732.536 180.273 733.818 178.991 733.818 177.409V177.409C733.818 175.828 732.536 174.545 730.955 174.545H725.228C723.646 174.545 722.364 175.828 722.364 177.409V177.409Z" fill="#D9D9D9"/>
<path d="M741.182 157.773C741.182 156.191 739.9 154.909 738.318 154.909H730.137C728.555 154.909 727.273 156.191 727.273 157.773V157.773C727.273 159.354 728.555 160.636 730.137 160.636H738.318C739.9 160.636 741.182 159.354 741.182 157.773V157.773Z" fill="#D9D9D9"/>
<path d="M697.818 183.955C697.818 185.536 699.1 186.818 700.682 186.818H721.136C722.718 186.818 724 185.536 724 183.955V183.955C724 182.373 722.718 181.091 721.136 181.091H711.236H700.682C699.1 181.091 697.818 182.373 697.818 183.955V183.955Z" fill="#7CFC9B"/>
<path d="M764.091 151.227C764.091 149.646 762.809 148.364 761.228 148.364H739.955C738.373 148.364 737.091 149.646 737.091 151.227V151.227C737.091 152.809 738.373 154.091 739.955 154.091H761.228C762.809 154.091 764.091 152.809 764.091 151.227V151.227Z" fill="#7CFC9B"/>
<path d="M711.727 170.864C711.727 172.445 713.009 173.727 714.591 173.727H739.136C740.718 173.727 742 172.445 742 170.864V170.864C742 169.282 740.718 168 739.136 168H714.591C713.009 168 711.727 169.282 711.727 170.864V170.864Z" fill="#F0B041"/>
<path d="M747.728 164.318C747.728 162.737 746.445 161.454 744.864 161.454H725.228C723.646 161.454 722.364 162.737 722.364 164.318V164.318C722.364 165.9 723.646 167.182 725.228 167.182H744.864C746.445 167.182 747.728 165.9 747.728 164.318V164.318Z" fill="#E85A2A"/>
</g>
<g opacity="0.7">
<rect x="680.811" y="147.379" width="4.20779" height="1.4026" rx="0.701299" transform="rotate(-28 680.811 147.379)" fill="#0FFF49"/>
<rect x="685.765" y="144.745" width="4.20779" height="1.4026" rx="0.701299" transform="rotate(-28 685.765 144.745)" fill="#0FFF49"/>
<rect x="683.953" y="141.339" width="4.20779" height="1.4026" rx="0.701299" transform="rotate(62 683.953 141.339)" fill="#0FFF49"/>
<rect x="686.423" y="145.983" width="4.20779" height="1.4026" rx="0.701299" transform="rotate(62 686.423 145.983)" fill="#0FFF49"/>
</g>
<g opacity="0.75">
<rect x="730.697" y="78.8198" width="3.15584" height="1.05195" rx="0.525974" transform="rotate(-3 730.697 78.8198)" fill="#FFD700" fill-opacity="0.53"/>
<rect x="734.899" y="78.5994" width="3.15584" height="1.05195" rx="0.525974" transform="rotate(-3 734.899 78.5994)" fill="#FFD700" fill-opacity="0.53"/>
<rect x="734.747" y="75.7107" width="3.15584" height="1.05195" rx="0.525974" transform="rotate(87 734.747 75.7107)" fill="#FFD700" fill-opacity="0.53"/>
<rect x="734.954" y="79.6499" width="3.15584" height="1.05195" rx="0.525974" transform="rotate(87 734.954 79.6499)" fill="#FFD700" fill-opacity="0.53"/>
</g>
<g opacity="0.56">
<rect x="800.249" y="111.546" width="7.1686" height="2.15058" rx="1.07529" transform="rotate(27 800.249 111.546)" fill="#E85A2A"/>
<rect x="799.273" y="117.357" width="7.1686" height="2.15058" rx="1.07529" transform="rotate(-27 799.273 117.357)" fill="#E85A2A"/>
</g>
<g opacity="0.46">
<rect x="759.181" y="185.182" width="18" height="2.45455" rx="1.22727" fill="#AC6BFD"/>
<rect x="772.273" y="181.909" width="13.0909" height="2.45455" rx="1.22727" fill="#AC6BFD"/>
</g>
</svg>
