<svg width="893" height="255" viewBox="0 0 893 255" fill="none" xmlns="http://www.w3.org/2000/svg">
<rect x="3" y="3" width="887" height="249" fill="black"/>
<rect x="3" y="3" width="887" height="249" stroke="white" stroke-width="6"/>
<path d="M151.547 123.976C165.03 125.427 175.696 127.219 183.547 129.352C191.483 131.485 197.286 134.259 200.955 137.672C204.624 141.085 206.459 145.48 206.459 150.856C206.459 158.451 202.747 164.339 195.323 168.52C187.899 172.701 177.872 174.792 165.243 174.792C154.15 174.792 143.142 173.085 132.219 169.672C121.382 166.173 111.696 161.523 103.163 155.72V173H91.131V141.512L98.683 139.976C106.79 147.571 116.816 153.544 128.763 157.896C140.795 162.163 152.998 164.296 165.371 164.296C173.819 164.296 180.518 163.144 185.467 160.84C190.416 158.536 192.891 155.208 192.891 150.856C192.891 147.784 191.398 145.352 188.411 143.56C185.424 141.683 180.518 140.147 173.691 138.952C166.864 137.672 156.838 136.392 143.611 135.112C130.726 133.832 120.486 132.083 112.891 129.864C105.382 127.645 99.9203 124.829 96.507 121.416C93.179 118.003 91.515 113.693 91.515 108.488C91.515 100.552 95.2697 94.408 102.779 90.056C110.288 85.704 120.912 83.528 134.651 83.528C145.318 83.528 155.131 85.1067 164.091 88.264C173.136 91.336 181.286 95.6453 188.539 101.192V85.192H200.443V116.168L193.275 117.576C186.192 110.067 177.744 104.307 167.931 100.296C158.118 96.2 146.982 94.152 134.523 94.152C125.478 94.152 118.31 95.3893 113.019 97.864C107.814 100.339 105.211 103.88 105.211 108.488C105.211 111.475 106.576 113.864 109.307 115.656C112.038 117.448 116.646 118.984 123.131 120.264C129.616 121.459 139.088 122.696 151.547 123.976ZM367.989 122.824H348.021L311.285 177.224C305.141 186.099 299.296 192.669 293.749 196.936C288.202 201.288 281.632 203.464 274.037 203.464C269.088 203.464 264.821 202.952 261.237 201.928C257.653 200.904 252.661 199.069 246.261 196.424L250.485 186.44C255.178 188.403 259.274 189.853 262.773 190.792C266.357 191.816 270.197 192.328 274.293 192.328C279.754 192.328 284.448 191.048 288.373 188.488C292.298 185.928 296.224 181.875 300.149 176.328L261.749 122.824H243.189V112.712H292.853V122.824H276.213L307.189 165.96L336.245 122.824H320.117V112.712H367.989V122.824ZM549.764 162.888V173H489.476V162.888H512.004V150.6C512.004 142.408 510.041 135.667 506.116 130.376C502.276 125 495.492 122.312 485.764 122.312C471.257 122.312 455.343 130.077 438.02 145.608V162.888H460.676V173H398.596V162.888H425.476V122.824H398.596V112.712H438.02V135.368C445.615 128.371 453.551 122.611 461.828 118.088C470.191 113.48 478.895 111.176 487.94 111.176C500.996 111.176 510.34 115.016 515.972 122.696C521.689 130.291 524.548 139.933 524.548 151.624V162.888H549.764ZM655.09 166.216C644.85 171.848 634.354 174.664 623.602 174.664C614.13 174.664 606.919 172.36 601.97 167.752C597.021 163.059 594.546 156.104 594.546 146.888V122.824H574.45V112.712H594.546V95.944H607.09V112.712H645.106V122.824H607.09V146.76C607.09 158.024 612.765 163.656 624.114 163.656C633.33 163.656 642.205 161.395 650.738 156.872L655.09 166.216Z" fill="white"/>
<g opacity="0.7">
<rect x="681.697" y="148.99" width="4.31633" height="1.43878" rx="0.719388" transform="rotate(-28 681.697 148.99)" fill="#0FFF49"/>
<rect x="686.778" y="146.288" width="4.31633" height="1.43878" rx="0.719388" transform="rotate(-28 686.778 146.288)" fill="#0FFF49"/>
<rect x="684.921" y="142.794" width="4.31633" height="1.43878" rx="0.719388" transform="rotate(62 684.921 142.794)" fill="#0FFF49"/>
<rect x="687.454" y="147.558" width="4.31633" height="1.43878" rx="0.719388" transform="rotate(62 687.454 147.558)" fill="#0FFF49"/>
</g>
<g opacity="0.75">
<rect x="732.869" y="78.6623" width="3.23724" height="1.07908" rx="0.539541" transform="rotate(-3 732.869 78.6623)" fill="#FFD700" fill-opacity="0.53"/>
<rect x="737.181" y="78.4365" width="3.23724" height="1.07908" rx="0.539541" transform="rotate(-3 737.181 78.4365)" fill="#FFD700" fill-opacity="0.53"/>
<rect x="737.025" y="75.4732" width="3.23725" height="1.07908" rx="0.539541" transform="rotate(87 737.025 75.4732)" fill="#FFD700" fill-opacity="0.53"/>
<rect x="737.237" y="79.5139" width="3.23725" height="1.07908" rx="0.539541" transform="rotate(87 737.237 79.5139)" fill="#FFD700" fill-opacity="0.53"/>
</g>
<g opacity="0.56">
<rect x="804.216" y="112.232" width="7.3535" height="2.20605" rx="1.10303" transform="rotate(27 804.216 112.232)" fill="#E85A2A"/>
<rect x="803.214" y="118.193" width="7.3535" height="2.20605" rx="1.10303" transform="rotate(-27 803.214 118.193)" fill="#E85A2A"/>
</g>
<g opacity="0.46">
<rect x="762.09" y="187.768" width="18.4643" height="2.51786" rx="1.25893" fill="#AC6BFD"/>
<rect x="775.517" y="184.411" width="13.4286" height="2.51786" rx="1.25893" fill="#AC6BFD"/>
</g>
<g opacity="0.28" filter="url(#filter0_f_15_516)">
<path opacity="0.37" d="M765.446 145.804C763.488 143.845 747.821 129.521 700.821 87.8928V103.839L749.5 145.804L700.821 184.411V200.357L765.446 145.804Z" stroke="#FFD700" stroke-opacity="0.53"/>
<path opacity="0.81" d="M735.232 198.259L790.624 146.223L771.321 128.179L809.089 93.3483C809.389 89.0018 808.891 73.8999 809.089 69.009L749.499 128.179L768.803 146.223L710.473 198.259H735.232Z" stroke="#FFD700" stroke-opacity="0.53" stroke-width="3"/>
<path d="M691.17 88.3124C691.17 86.6901 692.485 85.3749 694.107 85.3749H710.893C712.515 85.3749 713.831 86.6901 713.831 88.3124C713.831 89.9348 712.515 91.2499 710.893 91.2499H694.107C692.485 91.2499 691.17 89.9348 691.17 88.3124Z" fill="#4B94EB"/>
<path d="M752.857 135.313C752.857 136.935 751.542 138.25 749.92 138.25H739.848C738.226 138.25 736.911 136.935 736.911 135.313C736.911 133.69 738.226 132.375 739.848 132.375H744.884H749.92C751.542 132.375 752.857 133.69 752.857 135.313Z" fill="#4B94EB"/>
<path d="M767.125 142.027C767.125 143.649 765.81 144.964 764.187 144.964H744.884C743.262 144.964 741.946 143.649 741.946 142.027C741.946 140.404 743.262 139.089 744.884 139.089H754.536H764.188C765.81 139.089 767.125 140.404 767.125 142.027Z" fill="#D9D9D9"/>
<path d="M763.768 135.313C763.768 136.935 762.453 138.25 760.83 138.25H757.473C755.851 138.25 754.536 136.935 754.536 135.313C754.536 133.69 755.851 132.375 757.473 132.375H759.152H760.83C762.453 132.375 763.768 133.69 763.768 135.313Z" fill="#F0B041"/>
<path d="M699.143 101.741C699.143 100.119 700.458 98.8037 702.08 98.8037H713.83C715.453 98.8037 716.768 100.119 716.768 101.741C716.768 103.364 715.453 104.679 713.83 104.679H702.08C700.458 104.679 699.143 103.364 699.143 101.741Z" fill="#AC6BFD"/>
<path d="M748.661 121.884C748.661 123.506 747.346 124.821 745.723 124.821H737.331C735.708 124.821 734.393 123.506 734.393 121.884C734.393 120.262 735.708 118.946 737.331 118.946H745.723C747.346 118.946 748.661 120.262 748.661 121.884Z" fill="#AC6BFD"/>
<path d="M717.607 101.741C717.607 100.119 718.922 98.8037 720.545 98.8037H726.42C728.042 98.8037 729.357 100.119 729.357 101.741C729.357 103.364 728.042 104.679 726.42 104.679H720.545C718.922 104.679 717.607 103.364 717.607 101.741Z" fill="#D9D9D9"/>
<path d="M733.553 121.884C733.553 123.506 732.238 124.821 730.616 124.821H722.223C720.601 124.821 719.285 123.506 719.285 121.884C719.285 120.262 720.601 118.946 722.223 118.946H730.616C732.238 118.946 733.553 120.262 733.553 121.884Z" fill="#D9D9D9"/>
<path d="M694.527 95.0268C694.527 93.4045 695.842 92.0893 697.465 92.0893H718.447C720.069 92.0893 721.384 93.4045 721.384 95.0268C721.384 96.6492 720.069 97.9643 718.447 97.9643H708.291H697.465C695.842 97.9643 694.527 96.6492 694.527 95.0268Z" fill="#7CFC9B"/>
<path d="M756.215 128.598C756.215 130.221 754.899 131.536 753.277 131.536H731.456C729.833 131.536 728.518 130.221 728.518 128.598C728.518 126.976 729.833 125.661 731.456 125.661H753.277C754.899 125.661 756.215 126.976 756.215 128.598Z" fill="#7CFC9B"/>
<path d="M705.858 108.455C705.858 106.833 707.173 105.518 708.795 105.518H733.974C735.596 105.518 736.911 106.833 736.911 108.455C736.911 110.078 735.596 111.393 733.974 111.393H708.795C707.173 111.393 705.858 110.078 705.858 108.455Z" fill="#F0B041"/>
<path d="M740.267 115.17C740.267 116.792 738.952 118.107 737.33 118.107H717.187C715.565 118.107 714.25 116.792 714.25 115.17C714.25 113.547 715.565 112.232 717.187 112.232H737.33C738.952 112.232 740.267 113.547 740.267 115.17Z" fill="#E85A2A"/>
<path d="M683.196 195.741C683.196 197.363 684.511 198.679 686.134 198.679H702.919C704.542 198.679 705.857 197.363 705.857 195.741C705.857 194.119 704.542 192.804 702.919 192.804H686.134C684.511 192.804 683.196 194.119 683.196 195.741Z" fill="#4B94EB"/>
<path d="M752.018 148.741C752.018 147.119 750.703 145.804 749.08 145.804H739.009C737.387 145.804 736.072 147.119 736.072 148.741C736.072 150.363 737.387 151.679 739.009 151.679H744.045H749.08C750.703 151.679 752.018 150.363 752.018 148.741Z" fill="#4B94EB"/>
<path d="M766.705 142.027C766.705 140.404 765.39 139.089 763.767 139.089H744.464C742.842 139.089 741.526 140.404 741.526 142.027C741.526 143.649 742.842 144.964 744.464 144.964H754.116H763.767C765.39 144.964 766.705 143.649 766.705 142.027Z" fill="#D9D9D9"/>
<path d="M762.09 148.741C762.09 147.119 760.775 145.804 759.152 145.804H755.795C754.173 145.804 752.858 147.119 752.858 148.741C752.858 150.363 754.173 151.679 755.795 151.679H757.474H759.152C760.775 151.679 762.09 150.363 762.09 148.741Z" fill="#F0B041"/>
<path d="M692.429 182.313C692.429 183.935 693.744 185.25 695.366 185.25H707.116C708.739 185.25 710.054 183.935 710.054 182.313C710.054 180.69 708.739 179.375 707.116 179.375H695.366C693.744 179.375 692.429 180.69 692.429 182.313Z" fill="#AC6BFD"/>
<path d="M745.304 162.17C745.304 160.547 743.989 159.232 742.366 159.232H733.973C732.351 159.232 731.036 160.547 731.036 162.17C731.036 163.792 732.351 165.107 733.973 165.107H742.366C743.989 165.107 745.304 163.792 745.304 162.17Z" fill="#AC6BFD"/>
<path d="M710.893 182.313C710.893 183.935 712.208 185.25 713.83 185.25H719.705C721.328 185.25 722.643 183.935 722.643 182.313C722.643 180.69 721.328 179.375 719.705 179.375H713.83C712.208 179.375 710.893 180.69 710.893 182.313Z" fill="#D9D9D9"/>
<path d="M730.197 162.17C730.197 160.547 728.882 159.232 727.259 159.232H718.866C717.244 159.232 715.929 160.547 715.929 162.17C715.929 163.792 717.244 165.107 718.866 165.107H727.259C728.882 165.107 730.197 163.792 730.197 162.17Z" fill="#D9D9D9"/>
<path d="M685.715 189.027C685.715 190.649 687.03 191.964 688.652 191.964H709.634C711.257 191.964 712.572 190.649 712.572 189.027C712.572 187.404 711.257 186.089 709.634 186.089H699.479H688.652C687.03 186.089 685.715 187.404 685.715 189.027Z" fill="#7CFC9B"/>
<path d="M753.696 155.456C753.696 153.833 752.381 152.518 750.759 152.518H728.937C727.315 152.518 726 153.833 726 155.456C726 157.078 727.315 158.393 728.937 158.393H750.759C752.381 158.393 753.696 157.078 753.696 155.456Z" fill="#7CFC9B"/>
<path d="M699.982 175.598C699.982 177.221 701.297 178.536 702.92 178.536H728.098C729.721 178.536 731.036 177.221 731.036 175.598C731.036 173.976 729.721 172.661 728.098 172.661H702.92C701.297 172.661 699.982 173.976 699.982 175.598Z" fill="#F0B041"/>
<path d="M736.91 168.884C736.91 167.262 735.595 165.946 733.973 165.946H713.83C712.207 165.946 710.892 167.262 710.892 168.884C710.892 170.506 712.207 171.821 713.83 171.821H733.973C735.595 171.821 736.91 170.506 736.91 168.884Z" fill="#E85A2A"/>
<path d="M749.5 132.319C751.636 129.937 768.727 112.513 820 61.875V85.8667L796.424 109.093L772.847 132.319L820 176.729V198.679L749.5 132.319Z" fill="white"/>
<g opacity="0.82">
<path d="M706.276 88.3124C706.276 86.6901 707.592 85.3749 709.214 85.3749H726C727.622 85.3749 728.937 86.6901 728.937 88.3124C728.937 89.9348 727.622 91.2499 726 91.2499H709.214C707.592 91.2499 706.276 89.9348 706.276 88.3124Z" fill="#4B94EB"/>
<path d="M767.964 135.313C767.964 136.935 766.649 138.25 765.027 138.25H754.955C753.333 138.25 752.018 136.935 752.018 135.313C752.018 133.69 753.333 132.375 754.955 132.375H759.991H765.027C766.649 132.375 767.964 133.69 767.964 135.313Z" fill="#4B94EB"/>
<path d="M782.232 142.027C782.232 143.649 780.917 144.964 779.295 144.964H759.991C758.369 144.964 757.053 143.649 757.053 142.027C757.053 140.404 758.369 139.089 759.991 139.089H769.643H779.295C780.917 139.089 782.232 140.404 782.232 142.027Z" fill="#D9D9D9"/>
<path d="M778.875 135.313C778.875 136.935 777.56 138.25 775.937 138.25H772.58C770.958 138.25 769.643 136.935 769.643 135.313C769.643 133.69 770.958 132.375 772.58 132.375H774.259H775.937C777.56 132.375 778.875 133.69 778.875 135.313Z" fill="#F0B041"/>
<path d="M714.25 101.741C714.25 100.119 715.565 98.8037 717.188 98.8037H728.938C730.56 98.8037 731.875 100.119 731.875 101.741C731.875 103.364 730.56 104.679 728.938 104.679H717.188C715.565 104.679 714.25 103.364 714.25 101.741Z" fill="#AC6BFD"/>
<path d="M763.768 121.884C763.768 123.506 762.453 124.821 760.83 124.821H752.437C750.815 124.821 749.5 123.506 749.5 121.884C749.5 120.262 750.815 118.946 752.437 118.946H760.83C762.453 118.946 763.768 120.262 763.768 121.884Z" fill="#AC6BFD"/>
<path d="M732.714 101.741C732.714 100.119 734.029 98.8037 735.651 98.8037H741.526C743.149 98.8037 744.464 100.119 744.464 101.741C744.464 103.364 743.149 104.679 741.526 104.679H735.651C734.029 104.679 732.714 103.364 732.714 101.741Z" fill="#D9D9D9"/>
<path d="M748.661 121.884C748.661 123.506 747.346 124.821 745.723 124.821H737.331C735.708 124.821 734.393 123.506 734.393 121.884C734.393 120.262 735.708 118.946 737.331 118.946H745.723C747.346 118.946 748.661 120.262 748.661 121.884Z" fill="#D9D9D9"/>
<path d="M709.634 95.0268C709.634 93.4045 710.949 92.0893 712.571 92.0893H733.553C735.176 92.0893 736.491 93.4045 736.491 95.0268C736.491 96.6492 735.176 97.9643 733.553 97.9643H723.398H712.571C710.949 97.9643 709.634 96.6492 709.634 95.0268Z" fill="#7CFC9B"/>
<path d="M771.321 128.598C771.321 130.221 770.006 131.536 768.384 131.536H746.562C744.94 131.536 743.625 130.221 743.625 128.598C743.625 126.976 744.94 125.661 746.562 125.661H768.384C770.006 125.661 771.321 126.976 771.321 128.598Z" fill="#7CFC9B"/>
<path d="M720.965 108.455C720.965 106.833 722.28 105.518 723.902 105.518H749.081C750.703 105.518 752.018 106.833 752.018 108.455C752.018 110.078 750.703 111.393 749.081 111.393H723.902C722.28 111.393 720.965 110.078 720.965 108.455Z" fill="#F0B041"/>
<path d="M755.375 115.17C755.375 116.792 754.06 118.107 752.438 118.107H732.295C730.673 118.107 729.357 116.792 729.357 115.17C729.357 113.547 730.673 112.232 732.295 112.232H752.438C754.06 112.232 755.375 113.547 755.375 115.17Z" fill="#E85A2A"/>
<path d="M698.303 195.741C698.303 197.363 699.618 198.679 701.241 198.679H718.026C719.649 198.679 720.964 197.363 720.964 195.741C720.964 194.119 719.649 192.804 718.026 192.804H701.241C699.618 192.804 698.303 194.119 698.303 195.741Z" fill="#4B94EB"/>
<path d="M767.125 148.741C767.125 147.119 765.81 145.804 764.187 145.804H754.116C752.494 145.804 751.179 147.119 751.179 148.741C751.179 150.363 752.494 151.679 754.116 151.679H759.152H764.188C765.81 151.679 767.125 150.363 767.125 148.741Z" fill="#4B94EB"/>
<path d="M781.813 142.027C781.813 140.404 780.498 139.089 778.875 139.089H759.572C757.949 139.089 756.634 140.404 756.634 142.027C756.634 143.649 757.949 144.964 759.572 144.964H769.223H778.875C780.498 144.964 781.813 143.649 781.813 142.027Z" fill="#D9D9D9"/>
<path d="M777.197 148.741C777.197 147.119 775.882 145.804 774.259 145.804H770.902C769.28 145.804 767.965 147.119 767.965 148.741C767.965 150.363 769.28 151.679 770.902 151.679H772.581H774.259C775.882 151.679 777.197 150.363 777.197 148.741Z" fill="#F0B041"/>
<path d="M707.535 182.313C707.535 183.935 708.851 185.25 710.473 185.25H722.223C723.845 185.25 725.16 183.935 725.16 182.313C725.16 180.69 723.845 179.375 722.223 179.375H710.473C708.851 179.375 707.535 180.69 707.535 182.313Z" fill="#AC6BFD"/>
<path d="M760.41 162.17C760.41 160.547 759.095 159.232 757.473 159.232H749.08C747.458 159.232 746.143 160.547 746.143 162.17C746.143 163.792 747.458 165.107 749.08 165.107H757.473C759.095 165.107 760.41 163.792 760.41 162.17Z" fill="#AC6BFD"/>
<path d="M726 182.313C726 183.935 727.315 185.25 728.937 185.25H734.812C736.435 185.25 737.75 183.935 737.75 182.313C737.75 180.69 736.435 179.375 734.812 179.375H728.937C727.315 179.375 726 180.69 726 182.313Z" fill="#D9D9D9"/>
<path d="M745.304 162.17C745.304 160.547 743.989 159.232 742.366 159.232H733.973C732.351 159.232 731.036 160.547 731.036 162.17C731.036 163.792 732.351 165.107 733.973 165.107H742.366C743.989 165.107 745.304 163.792 745.304 162.17Z" fill="#D9D9D9"/>
<path d="M700.821 189.027C700.821 190.649 702.136 191.964 703.759 191.964H724.741C726.363 191.964 727.678 190.649 727.678 189.027C727.678 187.404 726.363 186.089 724.741 186.089H714.585H703.759C702.136 186.089 700.821 187.404 700.821 189.027Z" fill="#7CFC9B"/>
<path d="M768.803 155.456C768.803 153.833 767.488 152.518 765.866 152.518H744.044C742.422 152.518 741.107 153.833 741.107 155.456C741.107 157.078 742.422 158.393 744.044 158.393H765.866C767.488 158.393 768.803 157.078 768.803 155.456Z" fill="#7CFC9B"/>
<path d="M715.089 175.598C715.089 177.221 716.404 178.536 718.026 178.536H743.205C744.827 178.536 746.143 177.221 746.143 175.598C746.143 173.976 744.827 172.661 743.205 172.661H718.026C716.404 172.661 715.089 173.976 715.089 175.598Z" fill="#F0B041"/>
<path d="M752.018 168.884C752.018 167.262 750.703 165.946 749.08 165.946H728.938C727.315 165.946 726 167.262 726 168.884C726 170.506 727.315 171.821 728.938 171.821H749.08C750.703 171.821 752.018 170.506 752.018 168.884Z" fill="#E85A2A"/>
</g>
</g>
<path opacity="0.37" d="M761.25 139.929C759.292 137.97 743.625 123.647 696.625 82.018V97.9644L745.304 139.929L696.625 178.536V194.482L761.25 139.929Z" stroke="#FFD700" stroke-opacity="0.53"/>
<path opacity="0.81" d="M731.035 192.384L786.428 140.348L767.125 122.304L804.893 87.4732C805.193 83.1268 804.695 68.0248 804.893 63.1339L745.303 122.304L764.607 140.348L706.276 192.384H731.035Z" stroke="#FFD700" stroke-opacity="0.53" stroke-width="3"/>
<path d="M686.974 82.4376C686.974 80.8152 688.289 79.5001 689.911 79.5001H706.697C708.319 79.5001 709.634 80.8152 709.634 82.4376C709.634 84.0599 708.319 85.3751 706.697 85.3751H689.911C688.289 85.3751 686.974 84.0599 686.974 82.4376Z" fill="#4B94EB"/>
<path d="M748.661 129.438C748.661 131.06 747.346 132.375 745.723 132.375H735.652C734.03 132.375 732.714 131.06 732.714 129.438C732.714 127.815 734.03 126.5 735.652 126.5H740.688H745.723C747.346 126.5 748.661 127.815 748.661 129.438Z" fill="#4B94EB"/>
<path d="M762.929 136.152C762.929 137.774 761.614 139.089 759.991 139.089H740.688C739.065 139.089 737.75 137.774 737.75 136.152C737.75 134.529 739.065 133.214 740.688 133.214H750.34H759.991C761.614 133.214 762.929 134.529 762.929 136.152Z" fill="#D9D9D9"/>
<path d="M759.572 129.438C759.572 131.06 758.257 132.375 756.634 132.375H753.277C751.655 132.375 750.34 131.06 750.34 129.438C750.34 127.815 751.655 126.5 753.277 126.5H754.956H756.634C758.257 126.5 759.572 127.815 759.572 129.438Z" fill="#F0B041"/>
<path d="M694.947 95.8662C694.947 94.2438 696.262 92.9286 697.884 92.9286H709.634C711.257 92.9286 712.572 94.2438 712.572 95.8662C712.572 97.4885 711.257 98.8037 709.634 98.8037H697.884C696.262 98.8037 694.947 97.4885 694.947 95.8662Z" fill="#AC6BFD"/>
<path d="M744.465 116.009C744.465 117.631 743.15 118.947 741.527 118.947H733.134C731.512 118.947 730.197 117.631 730.197 116.009C730.197 114.387 731.512 113.072 733.134 113.072H741.527C743.15 113.072 744.465 114.387 744.465 116.009Z" fill="#AC6BFD"/>
<path d="M713.411 95.8662C713.411 94.2438 714.726 92.9286 716.349 92.9286H722.224C723.846 92.9286 725.161 94.2438 725.161 95.8662C725.161 97.4885 723.846 98.8037 722.224 98.8037H716.349C714.726 98.8037 713.411 97.4885 713.411 95.8662Z" fill="#D9D9D9"/>
<path d="M729.357 116.009C729.357 117.631 728.042 118.947 726.42 118.947H718.027C716.404 118.947 715.089 117.631 715.089 116.009C715.089 114.387 716.404 113.072 718.027 113.072H726.42C728.042 113.072 729.357 114.387 729.357 116.009Z" fill="#D9D9D9"/>
<path d="M690.33 89.1518C690.33 87.5294 691.646 86.2143 693.268 86.2143H714.25C715.872 86.2143 717.188 87.5294 717.188 89.1518C717.188 90.7741 715.872 92.0893 714.25 92.0893H704.095H693.268C691.646 92.0893 690.33 90.7741 690.33 89.1518Z" fill="#7CFC9B"/>
<path d="M752.018 122.723C752.018 124.346 750.703 125.661 749.08 125.661H727.259C725.637 125.661 724.322 124.346 724.322 122.723C724.322 121.101 725.637 119.786 727.259 119.786H749.08C750.703 119.786 752.018 121.101 752.018 122.723Z" fill="#7CFC9B"/>
<path d="M701.66 102.581C701.66 100.958 702.975 99.643 704.598 99.643H729.776C731.399 99.643 732.714 100.958 732.714 102.581C732.714 104.203 731.399 105.518 729.776 105.518H704.598C702.975 105.518 701.66 104.203 701.66 102.581Z" fill="#F0B041"/>
<path d="M736.071 109.295C736.071 110.917 734.756 112.232 733.134 112.232H712.991C711.368 112.232 710.053 110.917 710.053 109.295C710.053 107.672 711.368 106.357 712.991 106.357H733.134C734.756 106.357 736.071 107.672 736.071 109.295Z" fill="#E85A2A"/>
<path d="M679 189.866C679 191.489 680.315 192.804 681.938 192.804H698.723C700.346 192.804 701.661 191.489 701.661 189.866C701.661 188.244 700.346 186.929 698.723 186.929H681.937C680.315 186.929 679 188.244 679 189.866Z" fill="#4B94EB"/>
<path d="M747.822 142.866C747.822 141.244 746.507 139.928 744.884 139.928H734.813C733.191 139.928 731.875 141.244 731.875 142.866C731.875 144.488 733.191 145.803 734.813 145.803H739.849H744.884C746.507 145.803 747.822 144.488 747.822 142.866Z" fill="#4B94EB"/>
<path d="M762.509 136.152C762.509 134.53 761.194 133.214 759.571 133.214H740.268C738.645 133.214 737.33 134.53 737.33 136.152C737.33 137.774 738.645 139.089 740.268 139.089H749.919H759.571C761.194 139.089 762.509 137.774 762.509 136.152Z" fill="#D9D9D9"/>
<path d="M757.892 142.866C757.892 141.244 756.577 139.928 754.955 139.928H751.598C749.975 139.928 748.66 141.244 748.66 142.866C748.66 144.488 749.975 145.803 751.598 145.803H753.276H754.955C756.577 145.803 757.892 144.488 757.892 142.866Z" fill="#F0B041"/>
<path d="M688.233 176.437C688.233 178.06 689.548 179.375 691.17 179.375H702.92C704.542 179.375 705.858 178.06 705.858 176.437C705.858 174.815 704.542 173.5 702.92 173.5H691.17C689.548 173.5 688.233 174.815 688.233 176.437Z" fill="#AC6BFD"/>
<path d="M741.108 156.295C741.108 154.672 739.792 153.357 738.17 153.357H729.777C728.155 153.357 726.84 154.672 726.84 156.295C726.84 157.917 728.155 159.232 729.777 159.232H738.17C739.792 159.232 741.108 157.917 741.108 156.295Z" fill="#AC6BFD"/>
<path d="M706.697 176.437C706.697 178.06 708.012 179.375 709.634 179.375H715.509C717.132 179.375 718.447 178.06 718.447 176.437C718.447 174.815 717.132 173.5 715.509 173.5H709.634C708.012 173.5 706.697 174.815 706.697 176.437Z" fill="#D9D9D9"/>
<path d="M726 156.295C726 154.672 724.685 153.357 723.062 153.357H714.669C713.047 153.357 711.732 154.672 711.732 156.295C711.732 157.917 713.047 159.232 714.669 159.232H723.062C724.685 159.232 726 157.917 726 156.295Z" fill="#D9D9D9"/>
<path d="M681.518 183.152C681.518 184.774 682.833 186.089 684.455 186.089H705.438C707.06 186.089 708.375 184.774 708.375 183.152C708.375 181.53 707.06 180.214 705.438 180.214H695.282H684.455C682.833 180.214 681.518 181.53 681.518 183.152Z" fill="#7CFC9B"/>
<path d="M749.5 149.58C749.5 147.958 748.185 146.643 746.562 146.643H724.741C723.119 146.643 721.804 147.958 721.804 149.58C721.804 151.203 723.119 152.518 724.741 152.518H746.562C748.185 152.518 749.5 151.203 749.5 149.58Z" fill="#7CFC9B"/>
<path d="M695.786 169.723C695.786 171.346 697.101 172.661 698.724 172.661H723.902C725.524 172.661 726.84 171.346 726.84 169.723C726.84 168.101 725.524 166.786 723.902 166.786H698.724C697.101 166.786 695.786 168.101 695.786 169.723Z" fill="#F0B041"/>
<path d="M732.714 163.009C732.714 161.387 731.399 160.071 729.777 160.071H709.634C708.011 160.071 706.696 161.387 706.696 163.009C706.696 164.631 708.011 165.946 709.634 165.946H729.777C731.399 165.946 732.714 164.631 732.714 163.009Z" fill="#E85A2A"/>
<path d="M745.304 126.444C747.44 124.062 764.531 106.638 815.804 56V79.9917L792.228 103.218L768.651 126.444L815.804 170.854V192.804L745.304 126.444Z" fill="white"/>
<g opacity="0.82">
<path d="M702.08 82.4376C702.08 80.8152 703.395 79.5001 705.018 79.5001H721.803C723.426 79.5001 724.741 80.8152 724.741 82.4376C724.741 84.0599 723.426 85.3751 721.803 85.3751H705.018C703.395 85.3751 702.08 84.0599 702.08 82.4376Z" fill="#4B94EB"/>
<path d="M763.768 129.438C763.768 131.06 762.453 132.375 760.83 132.375H750.759C749.136 132.375 747.821 131.06 747.821 129.438C747.821 127.815 749.136 126.5 750.759 126.5H755.794H760.83C762.453 126.5 763.768 127.815 763.768 129.438Z" fill="#4B94EB"/>
<path d="M778.035 136.152C778.035 137.774 776.72 139.089 775.098 139.089H755.794C754.172 139.089 752.857 137.774 752.857 136.152C752.857 134.529 754.172 133.214 755.794 133.214H765.446H775.098C776.72 133.214 778.035 134.529 778.035 136.152Z" fill="#D9D9D9"/>
<path d="M774.678 129.438C774.678 131.06 773.363 132.375 771.741 132.375H768.384C766.761 132.375 765.446 131.06 765.446 129.438C765.446 127.815 766.761 126.5 768.384 126.5H770.062H771.741C773.363 126.5 774.678 127.815 774.678 129.438Z" fill="#F0B041"/>
<path d="M710.054 95.8662C710.054 94.2438 711.369 92.9286 712.991 92.9286H724.741C726.364 92.9286 727.679 94.2438 727.679 95.8662C727.679 97.4885 726.364 98.8037 724.741 98.8037H712.991C711.369 98.8037 710.054 97.4885 710.054 95.8662Z" fill="#AC6BFD"/>
<path d="M759.572 116.009C759.572 117.631 758.257 118.947 756.634 118.947H748.242C746.619 118.947 745.304 117.631 745.304 116.009C745.304 114.387 746.619 113.072 748.242 113.072H756.634C758.257 113.072 759.572 114.387 759.572 116.009Z" fill="#AC6BFD"/>
<path d="M728.518 95.8662C728.518 94.2438 729.833 92.9286 731.455 92.9286H737.33C738.953 92.9286 740.268 94.2438 740.268 95.8662C740.268 97.4885 738.953 98.8037 737.33 98.8037H731.455C729.833 98.8037 728.518 97.4885 728.518 95.8662Z" fill="#D9D9D9"/>
<path d="M744.465 116.009C744.465 117.631 743.15 118.947 741.527 118.947H733.134C731.512 118.947 730.197 117.631 730.197 116.009C730.197 114.387 731.512 113.072 733.134 113.072H741.527C743.15 113.072 744.465 114.387 744.465 116.009Z" fill="#D9D9D9"/>
<path d="M705.438 89.1518C705.438 87.5294 706.753 86.2143 708.375 86.2143H729.357C730.979 86.2143 732.295 87.5294 732.295 89.1518C732.295 90.7741 730.979 92.0893 729.357 92.0893H719.202H708.375C706.753 92.0893 705.438 90.7741 705.438 89.1518Z" fill="#7CFC9B"/>
<path d="M767.125 122.723C767.125 124.346 765.81 125.661 764.188 125.661H742.366C740.744 125.661 739.429 124.346 739.429 122.723C739.429 121.101 740.744 119.786 742.366 119.786H764.187C765.81 119.786 767.125 121.101 767.125 122.723Z" fill="#7CFC9B"/>
<path d="M716.768 102.581C716.768 100.958 718.083 99.643 719.705 99.643H744.884C746.506 99.643 747.822 100.958 747.822 102.581C747.822 104.203 746.506 105.518 744.884 105.518H719.705C718.083 105.518 716.768 104.203 716.768 102.581Z" fill="#F0B041"/>
<path d="M751.178 109.295C751.178 110.917 749.863 112.232 748.241 112.232H728.098C726.476 112.232 725.16 110.917 725.16 109.295C725.16 107.672 726.476 106.357 728.098 106.357H748.241C749.863 106.357 751.178 107.672 751.178 109.295Z" fill="#E85A2A"/>
<path d="M694.107 189.866C694.107 191.489 695.422 192.804 697.045 192.804H713.83C715.453 192.804 716.768 191.489 716.768 189.866C716.768 188.244 715.453 186.929 713.83 186.929H697.045C695.422 186.929 694.107 188.244 694.107 189.866Z" fill="#4B94EB"/>
<path d="M762.929 142.866C762.929 141.244 761.614 139.928 759.991 139.928H749.92C748.298 139.928 746.982 141.244 746.982 142.866C746.982 144.488 748.298 145.803 749.92 145.803H754.956H759.991C761.614 145.803 762.929 144.488 762.929 142.866Z" fill="#4B94EB"/>
<path d="M777.616 136.152C777.616 134.53 776.301 133.214 774.678 133.214H755.375C753.752 133.214 752.437 134.53 752.437 136.152C752.437 137.774 753.752 139.089 755.375 139.089H765.026H774.678C776.301 139.089 777.616 137.774 777.616 136.152Z" fill="#D9D9D9"/>
<path d="M773 142.866C773 141.244 771.685 139.928 770.063 139.928H766.706C765.083 139.928 763.768 141.244 763.768 142.866C763.768 144.488 765.083 145.803 766.706 145.803H768.384H770.063C771.685 145.803 773 144.488 773 142.866Z" fill="#F0B041"/>
<path d="M703.34 176.437C703.34 178.06 704.655 179.375 706.277 179.375H718.027C719.649 179.375 720.965 178.06 720.965 176.437C720.965 174.815 719.649 173.5 718.027 173.5H706.277C704.655 173.5 703.34 174.815 703.34 176.437Z" fill="#AC6BFD"/>
<path d="M756.215 156.295C756.215 154.672 754.899 153.357 753.277 153.357H744.884C743.262 153.357 741.947 154.672 741.947 156.295C741.947 157.917 743.262 159.232 744.884 159.232H753.277C754.899 159.232 756.215 157.917 756.215 156.295Z" fill="#AC6BFD"/>
<path d="M721.803 176.437C721.803 178.06 723.118 179.375 724.741 179.375H730.616C732.238 179.375 733.553 178.06 733.553 176.437C733.553 174.815 732.238 173.5 730.616 173.5H724.741C723.118 173.5 721.803 174.815 721.803 176.437Z" fill="#D9D9D9"/>
<path d="M741.108 156.295C741.108 154.672 739.792 153.357 738.17 153.357H729.777C728.155 153.357 726.84 154.672 726.84 156.295C726.84 157.917 728.155 159.232 729.777 159.232H738.17C739.792 159.232 741.108 157.917 741.108 156.295Z" fill="#D9D9D9"/>
<path d="M696.625 183.152C696.625 184.774 697.94 186.089 699.563 186.089H720.545C722.167 186.089 723.482 184.774 723.482 183.152C723.482 181.53 722.167 180.214 720.545 180.214H710.389H699.563C697.94 180.214 696.625 181.53 696.625 183.152Z" fill="#7CFC9B"/>
<path d="M764.607 149.58C764.607 147.958 763.292 146.643 761.67 146.643H739.848C738.226 146.643 736.911 147.958 736.911 149.58C736.911 151.203 738.226 152.518 739.848 152.518H761.67C763.292 152.518 764.607 151.203 764.607 149.58Z" fill="#7CFC9B"/>
<path d="M710.893 169.723C710.893 171.346 712.208 172.661 713.83 172.661H739.009C740.631 172.661 741.946 171.346 741.946 169.723C741.946 168.101 740.631 166.786 739.009 166.786H713.83C712.208 166.786 710.893 168.101 710.893 169.723Z" fill="#F0B041"/>
<path d="M747.822 163.009C747.822 161.387 746.507 160.071 744.884 160.071H724.741C723.119 160.071 721.804 161.387 721.804 163.009C721.804 164.631 723.119 165.946 724.741 165.946H744.884C746.507 165.946 747.822 164.631 747.822 163.009Z" fill="#E85A2A"/>
</g>
<defs>
<filter id="filter0_f_15_516" x="680.196" y="58.875" width="142.804" height="145.559" filterUnits="userSpaceOnUse" color-interpolation-filters="sRGB">
<feFlood flood-opacity="0" result="BackgroundImageFix"/>
<feBlend mode="normal" in="SourceGraphic" in2="BackgroundImageFix" result="shape"/>
<feGaussianBlur stdDeviation="1.5" result="effect1_foregroundBlur_15_516"/>
</filter>
</defs>
</svg>
